<svg width="453" height="111" viewBox="0 0 453 111" fill="none" xmlns="http://www.w3.org/2000/svg">
<path opacity="0.5" d="M116.908 0.807919L88.2977 102.163C88.1522 102.623 87.5703 102.761 87.2308 102.439L68.0761 84.266L82.43 33.4734C82.5755 33.0134 82.1391 32.5993 81.6541 32.7373L28.118 46.3556L9.06024 28.2746C8.72079 27.9525 8.86627 27.4004 9.3512 27.2624L116.133 0.0717943C116.618 -0.0202213 117.054 0.393849 116.908 0.807919Z" fill="#00B37E"/>
<path opacity="0.5" d="M68.0751 84.2652L60.7042 110.49C60.5587 110.95 59.9768 111.088 59.6373 110.766L0.184999 54.4061C-0.154451 54.084 -0.00897323 53.532 0.475956 53.3939L28.1169 46.3547L68.0751 84.2652Z" fill="#00B37E"/>
<path d="M82.4276 33.4726L68.0737 84.2652L28.1155 46.3547L81.6517 32.7364C82.1367 32.5984 82.5731 33.0125 82.4276 33.4726Z" fill="#00B37E"/>
<path d="M146.959 32V77.5H137.615V32H146.959ZM176.584 43.6875H184.74V76.375C184.74 79.4583 184.053 82.0729 182.678 84.2188C181.324 86.3854 179.428 88.0208 176.99 89.125C174.553 90.25 171.719 90.8125 168.49 90.8125C167.074 90.8125 165.574 90.625 163.99 90.25C162.428 89.875 160.928 89.2917 159.49 88.5C158.074 87.7083 156.886 86.7083 155.928 85.5L159.896 80.1875C160.938 81.3958 162.146 82.3333 163.521 83C164.896 83.6875 166.417 84.0312 168.084 84.0312C169.709 84.0312 171.084 83.7292 172.209 83.125C173.334 82.5417 174.199 81.6771 174.803 80.5312C175.407 79.4062 175.709 78.0417 175.709 76.4375V51.5L176.584 43.6875ZM153.834 61V60.3438C153.834 57.7604 154.146 55.4167 154.771 53.3125C155.417 51.1875 156.324 49.3646 157.49 47.8438C158.678 46.3229 160.115 45.1458 161.803 44.3125C163.49 43.4792 165.396 43.0625 167.521 43.0625C169.771 43.0625 171.657 43.4792 173.178 44.3125C174.699 45.1458 175.949 46.3333 176.928 47.875C177.907 49.3958 178.667 51.1979 179.209 53.2812C179.771 55.3438 180.209 57.6042 180.521 60.0625V61.5C180.209 63.8542 179.74 66.0417 179.115 68.0625C178.49 70.0833 177.667 71.8542 176.646 73.375C175.626 74.875 174.355 76.0417 172.834 76.875C171.334 77.7083 169.542 78.125 167.459 78.125C165.376 78.125 163.49 77.6979 161.803 76.8438C160.136 75.9896 158.709 74.7917 157.521 73.25C156.334 71.7083 155.417 69.8958 154.771 67.8125C154.146 65.7292 153.834 63.4583 153.834 61ZM162.834 60.3438V61C162.834 62.3958 162.969 63.6979 163.24 64.9062C163.511 66.1146 163.928 67.1875 164.49 68.125C165.074 69.0417 165.792 69.7604 166.646 70.2812C167.521 70.7812 168.553 71.0312 169.74 71.0312C171.386 71.0312 172.73 70.6875 173.771 70C174.813 69.2917 175.594 68.3229 176.115 67.0938C176.636 65.8646 176.938 64.4479 177.021 62.8438V58.75C176.98 57.4375 176.803 56.2604 176.49 55.2188C176.178 54.1562 175.74 53.25 175.178 52.5C174.615 51.75 173.886 51.1667 172.99 50.75C172.094 50.3333 171.032 50.125 169.803 50.125C168.615 50.125 167.584 50.3958 166.709 50.9375C165.855 51.4583 165.136 52.1771 164.553 53.0938C163.99 54.0104 163.563 55.0938 163.271 56.3438C162.98 57.5729 162.834 58.9062 162.834 60.3438ZM200.553 50.9062V77.5H191.553V43.6875H199.99L200.553 50.9062ZM199.24 59.4062H196.803C196.803 56.9062 197.126 54.6562 197.771 52.6562C198.417 50.6354 199.324 48.9167 200.49 47.5C201.657 46.0625 203.042 44.9688 204.646 44.2188C206.271 43.4479 208.084 43.0625 210.084 43.0625C211.667 43.0625 213.115 43.2917 214.428 43.75C215.74 44.2083 216.865 44.9375 217.803 45.9375C218.761 46.9375 219.49 48.2604 219.99 49.9062C220.511 51.5521 220.771 53.5625 220.771 55.9375V77.5H211.709V55.9062C211.709 54.4062 211.501 53.2396 211.084 52.4062C210.667 51.5729 210.053 50.9896 209.24 50.6562C208.449 50.3021 207.469 50.125 206.303 50.125C205.094 50.125 204.042 50.3646 203.146 50.8438C202.271 51.3229 201.542 51.9896 200.959 52.8438C200.396 53.6771 199.969 54.6562 199.678 55.7812C199.386 56.9062 199.24 58.1146 199.24 59.4062ZM237.115 43.6875V77.5H228.084V43.6875H237.115ZM227.521 34.875C227.521 33.5625 227.98 32.4792 228.896 31.625C229.813 30.7708 231.042 30.3438 232.584 30.3438C234.105 30.3438 235.324 30.7708 236.24 31.625C237.178 32.4792 237.646 33.5625 237.646 34.875C237.646 36.1875 237.178 37.2708 236.24 38.125C235.324 38.9792 234.105 39.4062 232.584 39.4062C231.042 39.4062 229.813 38.9792 228.896 38.125C227.98 37.2708 227.521 36.1875 227.521 34.875ZM261.115 43.6875V50.0625H241.428V43.6875H261.115ZM246.303 35.3438H255.303V67.3125C255.303 68.2917 255.428 69.0417 255.678 69.5625C255.949 70.0833 256.344 70.4479 256.865 70.6562C257.386 70.8438 258.042 70.9375 258.834 70.9375C259.396 70.9375 259.896 70.9167 260.334 70.875C260.792 70.8125 261.178 70.75 261.49 70.6875L261.521 77.3125C260.751 77.5625 259.917 77.7604 259.021 77.9062C258.126 78.0521 257.136 78.125 256.053 78.125C254.074 78.125 252.344 77.8021 250.865 77.1562C249.407 76.4896 248.282 75.4271 247.49 73.9688C246.699 72.5104 246.303 70.5938 246.303 68.2188V35.3438ZM281.803 78.125C279.178 78.125 276.824 77.7083 274.74 76.875C272.657 76.0208 270.886 74.8438 269.428 73.3438C267.99 71.8438 266.886 70.1042 266.115 68.125C265.344 66.125 264.959 64 264.959 61.75V60.5C264.959 57.9375 265.324 55.5938 266.053 53.4688C266.782 51.3438 267.824 49.5 269.178 47.9375C270.553 46.375 272.219 45.1771 274.178 44.3438C276.136 43.4896 278.344 43.0625 280.803 43.0625C283.199 43.0625 285.324 43.4583 287.178 44.25C289.032 45.0417 290.584 46.1667 291.834 47.625C293.105 49.0833 294.063 50.8333 294.709 52.875C295.355 54.8958 295.678 57.1458 295.678 59.625V63.375H268.803V57.375H286.834V56.6875C286.834 55.4375 286.605 54.3229 286.146 53.3438C285.709 52.3438 285.042 51.5521 284.146 50.9688C283.251 50.3854 282.105 50.0938 280.709 50.0938C279.521 50.0938 278.501 50.3542 277.646 50.875C276.792 51.3958 276.094 52.125 275.553 53.0625C275.032 54 274.636 55.1042 274.365 56.375C274.115 57.625 273.99 59 273.99 60.5V61.75C273.99 63.1042 274.178 64.3542 274.553 65.5C274.949 66.6458 275.501 67.6354 276.209 68.4688C276.938 69.3021 277.813 69.9479 278.834 70.4062C279.876 70.8646 281.053 71.0938 282.365 71.0938C283.99 71.0938 285.501 70.7812 286.896 70.1562C288.313 69.5104 289.532 68.5417 290.553 67.25L294.928 72C294.219 73.0208 293.251 74 292.021 74.9375C290.813 75.875 289.355 76.6458 287.646 77.25C285.938 77.8333 283.99 78.125 281.803 78.125ZM326.678 32V77.5H317.303V32H326.678ZM344.803 51.4375V58.75H324.115V51.4375H344.803ZM346.99 32V39.3438H324.115V32H346.99ZM366.74 78.125C364.115 78.125 361.761 77.7083 359.678 76.875C357.594 76.0208 355.824 74.8438 354.365 73.3438C352.928 71.8438 351.824 70.1042 351.053 68.125C350.282 66.125 349.896 64 349.896 61.75V60.5C349.896 57.9375 350.261 55.5938 350.99 53.4688C351.719 51.3438 352.761 49.5 354.115 47.9375C355.49 46.375 357.157 45.1771 359.115 44.3438C361.074 43.4896 363.282 43.0625 365.74 43.0625C368.136 43.0625 370.261 43.4583 372.115 44.25C373.969 45.0417 375.521 46.1667 376.771 47.625C378.042 49.0833 379.001 50.8333 379.646 52.875C380.292 54.8958 380.615 57.1458 380.615 59.625V63.375H353.74V57.375H371.771V56.6875C371.771 55.4375 371.542 54.3229 371.084 53.3438C370.646 52.3438 369.98 51.5521 369.084 50.9688C368.188 50.3854 367.042 50.0938 365.646 50.0938C364.459 50.0938 363.438 50.3542 362.584 50.875C361.73 51.3958 361.032 52.125 360.49 53.0625C359.969 54 359.574 55.1042 359.303 56.375C359.053 57.625 358.928 59 358.928 60.5V61.75C358.928 63.1042 359.115 64.3542 359.49 65.5C359.886 66.6458 360.438 67.6354 361.146 68.4688C361.876 69.3021 362.751 69.9479 363.771 70.4062C364.813 70.8646 365.99 71.0938 367.303 71.0938C368.928 71.0938 370.438 70.7812 371.834 70.1562C373.251 69.5104 374.469 68.5417 375.49 67.25L379.865 72C379.157 73.0208 378.188 74 376.959 74.9375C375.751 75.875 374.292 76.6458 372.584 77.25C370.876 77.8333 368.928 78.125 366.74 78.125ZM401.303 78.125C398.678 78.125 396.324 77.7083 394.24 76.875C392.157 76.0208 390.386 74.8438 388.928 73.3438C387.49 71.8438 386.386 70.1042 385.615 68.125C384.844 66.125 384.459 64 384.459 61.75V60.5C384.459 57.9375 384.824 55.5938 385.553 53.4688C386.282 51.3438 387.324 49.5 388.678 47.9375C390.053 46.375 391.719 45.1771 393.678 44.3438C395.636 43.4896 397.844 43.0625 400.303 43.0625C402.699 43.0625 404.824 43.4583 406.678 44.25C408.532 45.0417 410.084 46.1667 411.334 47.625C412.605 49.0833 413.563 50.8333 414.209 52.875C414.855 54.8958 415.178 57.1458 415.178 59.625V63.375H388.303V57.375H406.334V56.6875C406.334 55.4375 406.105 54.3229 405.646 53.3438C405.209 52.3438 404.542 51.5521 403.646 50.9688C402.751 50.3854 401.605 50.0938 400.209 50.0938C399.021 50.0938 398.001 50.3542 397.146 50.875C396.292 51.3958 395.594 52.125 395.053 53.0625C394.532 54 394.136 55.1042 393.865 56.375C393.615 57.625 393.49 59 393.49 60.5V61.75C393.49 63.1042 393.678 64.3542 394.053 65.5C394.449 66.6458 395.001 67.6354 395.709 68.4688C396.438 69.3021 397.313 69.9479 398.334 70.4062C399.376 70.8646 400.553 71.0938 401.865 71.0938C403.49 71.0938 405.001 70.7812 406.396 70.1562C407.813 69.5104 409.032 68.5417 410.053 67.25L414.428 72C413.719 73.0208 412.751 74 411.521 74.9375C410.313 75.875 408.855 76.6458 407.146 77.25C405.438 77.8333 403.49 78.125 401.303 78.125ZM440.271 70.125V29.5H449.334V77.5H441.178L440.271 70.125ZM418.896 61V60.3438C418.896 57.7604 419.188 55.4167 419.771 53.3125C420.355 51.1875 421.209 49.3646 422.334 47.8438C423.459 46.3229 424.844 45.1458 426.49 44.3125C428.136 43.4792 430.011 43.0625 432.115 43.0625C434.094 43.0625 435.824 43.4792 437.303 44.3125C438.803 45.1458 440.074 46.3333 441.115 47.875C442.178 49.3958 443.032 51.1979 443.678 53.2812C444.324 55.3438 444.792 57.6042 445.084 60.0625V61.5C444.792 63.8542 444.324 66.0417 443.678 68.0625C443.032 70.0833 442.178 71.8542 441.115 73.375C440.074 74.875 438.803 76.0417 437.303 76.875C435.803 77.7083 434.053 78.125 432.053 78.125C429.949 78.125 428.074 77.6979 426.428 76.8438C424.803 75.9896 423.428 74.7917 422.303 73.25C421.199 71.7083 420.355 69.8958 419.771 67.8125C419.188 65.7292 418.896 63.4583 418.896 61ZM427.896 60.3438V61C427.896 62.3958 428.001 63.6979 428.209 64.9062C428.438 66.1146 428.803 67.1875 429.303 68.125C429.824 69.0417 430.49 69.7604 431.303 70.2812C432.136 70.7812 433.146 71.0312 434.334 71.0312C435.876 71.0312 437.146 70.6875 438.146 70C439.146 69.2917 439.907 68.3229 440.428 67.0938C440.969 65.8646 441.282 64.4479 441.365 62.8438V58.75C441.303 57.4375 441.115 56.2604 440.803 55.2188C440.511 54.1562 440.074 53.25 439.49 52.5C438.928 51.75 438.219 51.1667 437.365 50.75C436.532 50.3333 435.542 50.125 434.396 50.125C433.23 50.125 432.23 50.3958 431.396 50.9375C430.563 51.4583 429.886 52.1771 429.365 53.0938C428.865 54.0104 428.49 55.0938 428.24 56.3438C428.011 57.5729 427.896 58.9062 427.896 60.3438Z" fill="#A8A8B3"/>
</svg>
