<svg width="943" height="150" viewBox="0 0 943 150" fill="none" xmlns="http://www.w3.org/2000/svg">
<path fill-rule="evenodd" clip-rule="evenodd" d="M933.152 54.4732L905.133 38.1338C903.699 37.2978 901.939 37.2883 900.497 38.1084L872.069 54.2751C870.577 55.1238 869.648 56.7357 869.667 58.4896L870.019 91.4392C870.037 93.1372 870.941 94.6872 872.378 95.5246L900.397 111.864C901.863 112.719 903.669 112.708 905.126 111.835L932.81 95.2342C934.216 94.3908 935.098 92.8595 935.119 91.1845L935.51 58.6689C935.531 56.9311 934.622 55.3301 933.152 54.4732ZM937.619 91.2146C937.588 93.749 936.253 96.0844 934.095 97.3782L906.412 113.979C904.173 115.321 901.392 115.339 899.137 114.024L871.118 97.6843C868.915 96.3996 867.547 94.0355 867.519 91.4659L867.167 58.5163C867.139 55.8626 868.544 53.4041 870.834 52.102L899.261 35.9353C901.478 34.6745 904.189 34.6893 906.392 35.9741L934.411 52.3135C936.666 53.6282 938.042 56.0699 938.01 58.699L937.619 91.2146Z" fill="url(#paint0_linear_213_65)"/>
<path d="M927.081 58.5317L905.845 46.6853C904.175 45.7538 902.12 45.743 900.44 46.6571L878.894 58.3783C877.159 59.3223 876.094 61.1048 876.115 63.0288L876.382 86.9179C876.403 88.7809 877.44 90.4949 879.11 91.4263L900.346 103.273C902.055 104.226 904.163 104.213 905.859 103.24L926.841 91.2044C928.476 90.2664 929.488 88.5731 929.511 86.7357L929.808 63.1613C929.832 61.2551 928.79 59.4848 927.081 58.5317Z" fill="url(#paint1_linear_213_65)"/>
<path d="M904.096 89.4232C903.733 89.1018 903.354 88.7792 902.991 88.422C902.702 88.6896 902.43 88.9405 902.143 89.1902C898.557 92.2812 894.861 93.568 892.671 92.317C890.551 91.1198 889.884 87.5832 890.732 83.1337C890.822 82.6514 890.931 82.1691 891.058 81.6868C890.677 81.5748 890.315 81.4718 889.953 81.3508C885.441 79.811 882.471 77.3102 882.471 74.8083C882.471 72.3971 885.242 70.0565 889.571 68.5558C890.056 68.3946 890.567 68.2344 891.093 68.0911C890.972 67.6263 890.876 67.1794 890.785 66.7472C889.879 62.2305 890.512 58.6222 892.65 57.4071C894.877 56.1203 898.573 57.4967 902.285 60.7299C902.502 60.9258 902.72 61.1409 902.955 61.3548C903.299 61.0334 903.625 60.7119 903.969 60.4264C907.483 57.4026 910.978 56.1382 913.116 57.3533C915.343 58.6031 915.996 62.4624 915 67.2332C914.945 67.5378 914.879 67.8234 914.801 68.1291C915.254 68.2546 915.706 68.3968 916.123 68.5401C920.543 70.0408 923.405 72.3814 923.368 74.8464C923.368 77.3651 920.307 79.849 915.613 81.3856C915.36 81.4572 915.107 81.5468 914.852 81.6174C914.961 81.9746 915.033 82.3319 915.105 82.6891C916.047 87.3166 915.322 91.1042 913.131 92.3551C912.556 92.6752 911.894 92.8383 911.223 92.8255C909.215 92.8221 906.665 91.6003 904.096 89.4232ZM907.647 82.8661C906.606 84.3618 905.463 85.7942 904.224 87.1542C904.568 87.4902 904.912 87.7982 905.256 88.0838C908.244 90.6204 910.997 91.5678 912.284 90.8354C912.677 90.5226 912.998 90.1401 913.229 89.7105C913.459 89.281 913.593 88.8131 913.625 88.3346C913.886 86.5616 913.812 84.7602 913.406 83.0105C913.352 82.6891 913.285 82.3677 913.189 82.0284C911.365 82.4231 909.513 82.703 907.647 82.8661ZM892.468 83.4384C891.727 87.2461 892.27 90.0839 893.559 90.8175C894.016 90.9939 894.509 91.0753 895.003 91.056C895.498 91.0366 895.982 90.917 896.421 90.7055C898.129 90.0421 899.684 89.0839 901.004 87.8822C901.275 87.6671 901.529 87.4174 901.801 87.1677C900.535 85.8072 899.361 84.375 898.287 82.8795C896.428 82.736 894.582 82.4741 892.763 82.0956C892.65 82.5626 892.559 83.0083 892.468 83.4384ZM903.011 85.9391C903.808 85.0633 904.604 84.0991 905.401 83.0273C904.604 83.0632 903.772 83.0811 902.938 83.0811C902.104 83.0811 901.326 83.0632 900.547 83.0273C901.361 84.0801 902.177 85.0633 903.009 85.9391H903.011ZM899.206 68.5021C898.517 69.4842 897.847 70.5179 897.214 71.6109C896.58 72.6827 896.002 73.7724 895.475 74.8587C896.019 75.9305 896.598 77.0201 897.232 78.1288C897.865 79.2006 898.536 80.2567 899.224 81.2545C900.419 81.3262 901.669 81.3665 902.937 81.3665C904.204 81.3665 905.472 81.3307 906.686 81.2422C907.338 80.26 908.008 79.2051 908.643 78.1154C909.278 77.0257 909.874 75.9181 910.4 74.8464C909.874 73.7925 909.277 72.7029 908.643 71.6121C908.009 70.5213 907.339 69.4842 906.669 68.5032C905.457 68.4136 904.205 68.3598 902.938 68.3598C901.67 68.3598 900.42 68.4125 899.206 68.5021ZM893.229 80.4538C894.472 80.7161 895.73 80.9132 896.997 81.044C896.562 80.3653 896.128 79.6855 895.711 78.971C895.312 78.2744 894.914 77.5778 894.551 76.8813C894.027 78.0952 893.592 79.2947 893.229 80.4538ZM910.164 78.9531C909.747 79.6676 909.33 80.3463 908.914 81.0081C910.2 80.8593 911.476 80.6446 912.736 80.3653C912.343 79.1593 911.883 77.9725 911.36 76.8096C910.979 77.5241 910.581 78.2386 910.164 78.9531ZM890.132 70.1987C886.437 71.4855 884.21 73.3591 884.21 74.8262C884.28 75.2982 884.451 75.7527 884.712 76.1636C884.973 76.5745 885.319 76.9337 885.731 77.2206C887.144 78.3192 888.766 79.1671 890.512 79.7214C890.838 79.8333 891.183 79.9185 891.527 80.026C892.083 78.2686 892.754 76.5442 893.537 74.8621C892.753 73.2087 892.087 71.5095 891.545 69.7754C891.056 69.8964 890.585 70.0375 890.132 70.1987ZM912.356 74.8262C913.16 76.4869 913.848 78.1934 914.416 79.9353C914.652 79.8636 914.887 79.7919 915.104 79.7202C919.143 78.3987 921.648 76.3795 921.661 74.8072C921.661 73.3423 919.343 71.4474 915.557 70.1618C915.177 70.0375 914.761 69.912 914.346 69.7866C913.797 71.5032 913.132 73.1864 912.356 74.8262ZM910.147 70.7173C910.564 71.4318 910.962 72.1295 911.323 72.826C911.827 71.6876 912.262 70.5245 912.627 69.342C911.397 69.0657 910.151 68.8511 908.896 68.6992C909.331 69.3588 909.747 70.0207 910.146 70.7173H910.147ZM893.247 69.3274C893.611 70.4709 894.045 71.6322 894.551 72.8283C894.915 72.1317 895.312 71.4351 895.711 70.7385C896.11 70.0419 896.525 69.3633 896.96 68.7014C895.656 68.8593 894.425 69.0732 893.247 69.3274ZM905.111 61.7344C904.803 62.0021 904.495 62.2877 904.186 62.5744C905.444 63.9177 906.6 65.3396 907.646 66.83C909.489 66.9945 911.317 67.2812 913.116 67.6879C913.188 67.4202 913.237 67.1514 913.297 66.8838C914.146 62.7748 913.623 59.6301 912.247 58.845C911.945 58.6883 911.602 58.6109 911.256 58.6211C909.776 58.6143 907.505 59.6794 905.111 61.7311V61.7344ZM893.519 58.8898C892.233 59.6223 891.725 62.552 892.486 66.4112C892.577 66.8222 892.668 67.2321 892.776 67.661C894.577 67.2692 896.405 66.9886 898.246 66.8211C899.296 65.3288 900.458 63.9067 901.724 62.5654C901.525 62.3683 901.307 62.1902 901.108 62.011C898.588 59.8082 896.164 58.6457 894.582 58.6457C894.21 58.634 893.842 58.7185 893.519 58.8898ZM905.364 66.6788C904.617 65.68 903.811 64.7199 902.95 63.8029C902.136 64.6776 901.32 65.6429 900.527 66.6788C901.324 66.643 902.12 66.6251 902.936 66.6251C903.751 66.6251 904.568 66.6396 905.365 66.6788H905.364ZM899.315 74.8979C899.298 74.4387 899.379 73.981 899.554 73.5509C899.729 73.1207 899.993 72.7267 900.333 72.3914C900.673 72.0561 901.081 71.7861 901.534 71.5968C901.987 71.4075 902.476 71.3027 902.973 71.2884C903.976 71.32 904.924 71.7177 905.61 72.3943C906.295 73.0709 906.663 73.9712 906.631 74.8979C906.664 75.8253 906.297 76.7267 905.61 77.404C904.924 78.0814 903.975 78.4795 902.972 78.5107C902.475 78.4964 901.986 78.3915 901.532 78.202C901.079 78.0125 900.671 77.7421 900.331 77.4065C899.991 77.0708 899.727 76.6764 899.552 76.2459C899.378 75.8154 899.297 75.3573 899.315 74.8979Z" fill="#2AC7E3"/>
<path d="M49.875 28V119H29.5625V28H49.875ZM77.5625 28V43.8125H2.4375V28H77.5625ZM101.938 67.125V119H82.4375V51.375H100.75L101.938 67.125ZM122.125 50.875L121.812 69.0625C120.979 68.9375 119.896 68.8333 118.562 68.75C117.229 68.625 116.083 68.5625 115.125 68.5625C112.625 68.5625 110.458 68.875 108.625 69.5C106.833 70.0833 105.333 70.9583 104.125 72.125C102.958 73.2917 102.083 74.75 101.5 76.5C100.917 78.2083 100.625 80.1875 100.625 82.4375L96.9375 80.625C96.9375 76.1667 97.375 72.0833 98.25 68.375C99.125 64.6667 100.396 61.4583 102.062 58.75C103.729 56 105.771 53.875 108.188 52.375C110.604 50.875 113.354 50.125 116.438 50.125C117.438 50.125 118.458 50.1875 119.5 50.3125C120.542 50.4375 121.417 50.625 122.125 50.875ZM150.688 51.375V119H131.125V51.375H150.688ZM129.938 33.875C129.938 31.0417 130.938 28.7292 132.938 26.9375C134.938 25.1042 137.562 24.1875 140.812 24.1875C144.062 24.1875 146.688 25.1042 148.688 26.9375C150.729 28.7292 151.75 31.0417 151.75 33.875C151.75 36.6667 150.729 38.9792 148.688 40.8125C146.688 42.6042 144.062 43.5 140.812 43.5C137.562 43.5 134.938 42.6042 132.938 40.8125C130.938 38.9792 129.938 36.6667 129.938 33.875ZM185.312 23V119H165.75V23H185.312ZM218.438 23V119H198.938V23H218.438ZM215.875 82.8125L211 82.9375C211 78.1875 211.583 73.8333 212.75 69.875C213.958 65.875 215.667 62.3958 217.875 59.4375C220.083 56.4792 222.729 54.1875 225.812 52.5625C228.938 50.9375 232.375 50.125 236.125 50.125C239.458 50.125 242.5 50.6042 245.25 51.5625C248 52.5208 250.375 54.0417 252.375 56.125C254.375 58.2083 255.917 60.9375 257 64.3125C258.083 67.6875 258.625 71.7917 258.625 76.625V119H239V76.5C239 73.625 238.583 71.375 237.75 69.75C236.958 68.125 235.792 66.9792 234.25 66.3125C232.75 65.6458 230.917 65.3125 228.75 65.3125C226.208 65.3125 224.104 65.7708 222.438 66.6875C220.771 67.5625 219.458 68.7917 218.5 70.375C217.542 71.9583 216.854 73.8125 216.438 75.9375C216.062 78.0625 215.875 80.3542 215.875 82.8125ZM307.188 102.875V73.875C307.188 71.8333 306.875 70.0833 306.25 68.625C305.625 67.1667 304.646 66.0208 303.312 65.1875C301.979 64.3542 300.25 63.9375 298.125 63.9375C296.333 63.9375 294.771 64.25 293.438 64.875C292.146 65.5 291.146 66.3958 290.438 67.5625C289.771 68.7292 289.438 70.1667 289.438 71.875H269.938C269.938 68.8333 270.625 66 272 63.375C273.375 60.75 275.333 58.4375 277.875 56.4375C280.458 54.4375 283.542 52.8958 287.125 51.8125C290.708 50.6875 294.729 50.125 299.188 50.125C304.479 50.125 309.188 51.0208 313.312 52.8125C317.479 54.5625 320.771 57.2083 323.188 60.75C325.604 64.25 326.812 68.6667 326.812 74V102.312C326.812 106.396 327.042 109.604 327.5 111.938C328 114.229 328.708 116.229 329.625 117.938V119H309.938C309.021 117.042 308.333 114.625 307.875 111.75C307.417 108.833 307.188 105.875 307.188 102.875ZM309.625 77.75L309.75 88.5H300.062C297.896 88.5 296.021 88.7708 294.438 89.3125C292.896 89.8542 291.646 90.6042 290.688 91.5625C289.729 92.4792 289.021 93.5625 288.562 94.8125C288.146 96.0208 287.938 97.3542 287.938 98.8125C287.938 100.188 288.271 101.438 288.938 102.562C289.604 103.646 290.521 104.5 291.688 105.125C292.854 105.75 294.208 106.062 295.75 106.062C298.292 106.062 300.458 105.562 302.25 104.562C304.083 103.562 305.5 102.354 306.5 100.938C307.5 99.4792 308 98.125 308 96.875L312.688 105C311.938 106.667 311.021 108.396 309.938 110.188C308.854 111.938 307.479 113.583 305.812 115.125C304.146 116.625 302.125 117.854 299.75 118.812C297.417 119.771 294.604 120.25 291.312 120.25C287.062 120.25 283.208 119.396 279.75 117.688C276.292 115.938 273.521 113.542 271.438 110.5C269.396 107.458 268.375 103.958 268.375 100C268.375 96.4583 269.021 93.3125 270.312 90.5625C271.604 87.8125 273.542 85.4792 276.125 83.5625C278.75 81.6458 282.042 80.2083 286 79.25C289.958 78.25 294.583 77.75 299.875 77.75H309.625Z" fill="#A8A8B3"/>
<path d="M371.938 28H407.75C414.75 28 420.833 29.0417 426 31.125C431.167 33.2083 435.146 36.2917 437.938 40.375C440.771 44.4583 442.188 49.5 442.188 55.5C442.188 60.7083 441.375 65.0625 439.75 68.5625C438.125 72.0625 435.854 74.9583 432.938 77.25C430.062 79.5 426.708 81.3542 422.875 82.8125L415.688 86.875H385.625L385.5 69.9375H407.75C410.542 69.9375 412.854 69.4375 414.688 68.4375C416.521 67.4375 417.896 66.0208 418.812 64.1875C419.771 62.3125 420.25 60.0833 420.25 57.5C420.25 54.875 419.771 52.625 418.812 50.75C417.854 48.875 416.438 47.4375 414.562 46.4375C412.729 45.4375 410.458 44.9375 407.75 44.9375H393.875V119H371.938V28ZM421.75 119L401.625 78.75L424.875 78.625L445.25 118.062V119H421.75ZM487.188 120.25C481.688 120.25 476.771 119.396 472.438 117.688C468.104 115.938 464.438 113.542 461.438 110.5C458.479 107.458 456.208 103.958 454.625 100C453.083 96.0417 452.312 91.8542 452.312 87.4375V85.0625C452.312 80.1042 453 75.5208 454.375 71.3125C455.75 67.0625 457.792 63.3542 460.5 60.1875C463.208 57.0208 466.604 54.5625 470.688 52.8125C474.771 51.0208 479.521 50.125 484.938 50.125C489.729 50.125 494.021 50.8958 497.812 52.4375C501.604 53.9792 504.812 56.1875 507.438 59.0625C510.104 61.9375 512.125 65.4167 513.5 69.5C514.917 73.5833 515.625 78.1667 515.625 83.25V91.8125H460.375V78.625H495.062V77C495.104 74.75 494.708 72.8333 493.875 71.25C493.083 69.6667 491.917 68.4583 490.375 67.625C488.833 66.7917 486.958 66.375 484.75 66.375C482.458 66.375 480.562 66.875 479.062 67.875C477.604 68.875 476.458 70.25 475.625 72C474.833 73.7083 474.271 75.6875 473.938 77.9375C473.604 80.1875 473.438 82.5625 473.438 85.0625V87.4375C473.438 89.9375 473.771 92.2083 474.438 94.25C475.146 96.2917 476.146 98.0417 477.438 99.5C478.771 100.917 480.354 102.021 482.188 102.812C484.062 103.604 486.188 104 488.562 104C491.438 104 494.271 103.458 497.062 102.375C499.854 101.292 502.25 99.5 504.25 97L513.812 108.375C512.438 110.333 510.479 112.229 507.938 114.062C505.438 115.896 502.438 117.396 498.938 118.562C495.438 119.688 491.521 120.25 487.188 120.25ZM559.312 102V74.125C559.312 72.2083 559.042 70.5625 558.5 69.1875C557.958 67.8125 557.104 66.75 555.938 66C554.771 65.2083 553.208 64.8125 551.25 64.8125C549.667 64.8125 548.312 65.0833 547.188 65.625C546.062 66.1667 545.208 66.9792 544.625 68.0625C544.042 69.1458 543.75 70.5208 543.75 72.1875H522.688C522.688 69.0625 523.375 66.1667 524.75 63.5C526.167 60.7917 528.167 58.4375 530.75 56.4375C533.375 54.4375 536.5 52.8958 540.125 51.8125C543.792 50.6875 547.875 50.125 552.375 50.125C557.75 50.125 562.542 51.0208 566.75 52.8125C571 54.6042 574.354 57.2917 576.812 60.875C579.271 64.4167 580.5 68.875 580.5 74.25V101.938C580.5 106.354 580.75 109.708 581.25 112C581.75 114.25 582.458 116.229 583.375 117.938V119H562.25C561.25 116.917 560.5 114.375 560 111.375C559.542 108.333 559.312 105.208 559.312 102ZM561.875 77.6875L562 88.9375H552.688C550.729 88.9375 549.062 89.2083 547.688 89.75C546.354 90.2917 545.271 91.0417 544.438 92C543.646 92.9167 543.062 93.9583 542.688 95.125C542.354 96.2917 542.188 97.5208 542.188 98.8125C542.188 100.062 542.479 101.188 543.062 102.188C543.688 103.146 544.521 103.896 545.562 104.438C546.604 104.979 547.771 105.25 549.062 105.25C551.396 105.25 553.375 104.812 555 103.938C556.667 103.021 557.938 101.917 558.812 100.625C559.688 99.3333 560.125 98.125 560.125 97L564.75 105.625C563.917 107.292 562.958 108.979 561.875 110.688C560.833 112.396 559.521 113.979 557.938 115.438C556.396 116.854 554.5 118.021 552.25 118.938C550 119.812 547.271 120.25 544.062 120.25C539.896 120.25 536.062 119.396 532.562 117.688C529.104 115.979 526.333 113.604 524.25 110.562C522.167 107.479 521.125 103.938 521.125 99.9375C521.125 96.4375 521.75 93.3125 523 90.5625C524.292 87.8125 526.229 85.4792 528.812 83.5625C531.396 81.6458 534.688 80.1875 538.688 79.1875C542.688 78.1875 547.396 77.6875 552.812 77.6875H561.875ZM620.75 104C622.708 104 624.375 103.646 625.75 102.938C627.167 102.188 628.229 101.146 628.938 99.8125C629.688 98.4375 630.042 96.7917 630 94.875H649.812C649.854 99.9583 648.604 104.417 646.062 108.25C643.562 112.042 640.146 115 635.812 117.125C631.521 119.208 626.667 120.25 621.25 120.25C615.958 120.25 611.333 119.396 607.375 117.688C603.417 115.938 600.104 113.521 597.438 110.438C594.812 107.312 592.833 103.667 591.5 99.5C590.208 95.3333 589.562 90.8125 589.562 85.9375V84.5C589.562 79.625 590.208 75.1042 591.5 70.9375C592.833 66.7292 594.812 63.0833 597.438 60C600.104 56.875 603.396 54.4583 607.312 52.75C611.271 51 615.875 50.125 621.125 50.125C626.75 50.125 631.708 51.1875 636 53.3125C640.333 55.4375 643.729 58.5208 646.188 62.5625C648.646 66.6042 649.854 71.5 649.812 77.25H630C630.042 75.2083 629.729 73.375 629.062 71.75C628.396 70.125 627.354 68.8333 625.938 67.875C624.562 66.875 622.792 66.375 620.625 66.375C618.458 66.375 616.708 66.8542 615.375 67.8125C614.042 68.7708 613.021 70.1042 612.312 71.8125C611.646 73.4792 611.188 75.3958 610.938 77.5625C610.729 79.7292 610.625 82.0417 610.625 84.5V85.9375C610.625 88.4375 610.729 90.7917 610.938 93C611.188 95.1667 611.667 97.0833 612.375 98.75C613.083 100.375 614.104 101.667 615.438 102.625C616.771 103.542 618.542 104 620.75 104ZM694.438 51.375V66H653.688V51.375H694.438ZM662.25 34.5625H683.312V96.9375C683.312 98.7292 683.521 100.125 683.938 101.125C684.354 102.083 685.062 102.771 686.062 103.188C687.104 103.562 688.479 103.75 690.188 103.75C691.396 103.75 692.396 103.729 693.188 103.688C693.979 103.604 694.729 103.5 695.438 103.375V118.438C693.646 119.021 691.771 119.458 689.812 119.75C687.854 120.083 685.771 120.25 683.562 120.25C679.062 120.25 675.208 119.542 672 118.125C668.833 116.708 666.417 114.479 664.75 111.438C663.083 108.396 662.25 104.438 662.25 99.5625V34.5625ZM740 90.4375V28H761.875V90.4375C761.875 96.5208 760.479 101.792 757.688 106.25C754.938 110.708 751.188 114.167 746.438 116.625C741.729 119.042 736.438 120.25 730.562 120.25C724.479 120.25 719.062 119.229 714.312 117.188C709.604 115.146 705.896 112 703.188 107.75C700.521 103.5 699.188 98.0833 699.188 91.5H721.188C721.188 94.5833 721.542 97 722.25 98.75C722.958 100.458 724 101.667 725.375 102.375C726.792 103.042 728.521 103.375 730.562 103.375C732.562 103.375 734.25 102.875 735.625 101.875C737.042 100.833 738.125 99.3542 738.875 97.4375C739.625 95.4792 740 93.1458 740 90.4375ZM822.688 94.8125C822.688 93.3958 822.479 92.125 822.062 91C821.646 89.8333 820.875 88.75 819.75 87.75C818.625 86.75 817 85.75 814.875 84.75C812.792 83.7083 810.042 82.625 806.625 81.5C802.625 80.1667 798.771 78.6667 795.062 77C791.354 75.2917 788.042 73.3125 785.125 71.0625C782.208 68.7708 779.896 66.1042 778.188 63.0625C776.479 59.9792 775.625 56.3958 775.625 52.3125C775.625 48.3958 776.5 44.875 778.25 41.75C780 38.5833 782.438 35.8958 785.562 33.6875C788.729 31.4375 792.438 29.7292 796.688 28.5625C800.938 27.3542 805.583 26.75 810.625 26.75C817.292 26.75 823.167 27.9167 828.25 30.25C833.375 32.5417 837.375 35.8125 840.25 40.0625C843.167 44.2708 844.625 49.25 844.625 55H822.812C822.812 52.7083 822.333 50.6875 821.375 48.9375C820.458 47.1875 819.062 45.8125 817.188 44.8125C815.312 43.8125 812.958 43.3125 810.125 43.3125C807.375 43.3125 805.062 43.7292 803.188 44.5625C801.312 45.3958 799.896 46.5208 798.938 47.9375C797.979 49.3125 797.5 50.8333 797.5 52.5C797.5 53.875 797.875 55.125 798.625 56.25C799.417 57.3333 800.521 58.3542 801.938 59.3125C803.396 60.2708 805.146 61.1875 807.188 62.0625C809.271 62.9375 811.604 63.7917 814.188 64.625C819.021 66.1667 823.312 67.8958 827.062 69.8125C830.854 71.6875 834.042 73.8333 836.625 76.25C839.25 78.625 841.229 81.3333 842.562 84.375C843.938 87.4167 844.625 90.8542 844.625 94.6875C844.625 98.7708 843.833 102.396 842.25 105.562C840.667 108.729 838.396 111.417 835.438 113.625C832.479 115.792 828.938 117.438 824.812 118.562C820.688 119.688 816.083 120.25 811 120.25C806.333 120.25 801.729 119.667 797.188 118.5C792.688 117.292 788.604 115.458 784.938 113C781.271 110.5 778.333 107.312 776.125 103.438C773.958 99.5208 772.875 94.875 772.875 89.5H794.875C794.875 92.1667 795.229 94.4167 795.938 96.25C796.646 98.0833 797.688 99.5625 799.062 100.688C800.438 101.771 802.125 102.562 804.125 103.062C806.125 103.521 808.417 103.75 811 103.75C813.792 103.75 816.042 103.354 817.75 102.562C819.458 101.729 820.708 100.646 821.5 99.3125C822.292 97.9375 822.688 96.4375 822.688 94.8125Z" fill="#4DCCE3"/>
<defs>
<linearGradient id="paint0_linear_213_65" x1="885.37" y1="43.4998" x2="922.152" y2="104.978" gradientUnits="userSpaceOnUse">
<stop stop-color="#4DBCD6"/>
<stop offset="1" stop-color="#4DBCD6" stop-opacity="0.24"/>
</linearGradient>
<linearGradient id="paint1_linear_213_65" x1="876.127" y1="46.1365" x2="933.902" y2="99.6397" gradientUnits="userSpaceOnUse">
<stop stop-color="#226B7A"/>
<stop offset="1" stop-color="#121214"/>
</linearGradient>
</defs>
</svg>
